<?xml version="1.0" standalone="no"?>
<!DOCTYPE svg PUBLIC "-//W3C//DTD SVG 20010904//EN"
 "http://www.w3.org/TR/2001/REC-SVG-20010904/DTD/svg10.dtd">
<svg version="1.0" xmlns="http://www.w3.org/2000/svg"
 width="900.000000pt" height="1512.000000pt" viewBox="0 0 900.000000 1512.000000"
 preserveAspectRatio="xMidYMid meet">

<g transform="translate(0.000000,1512.000000) scale(0.100000,-0.100000)"
fill="#000000" stroke="none">

<defs>
      //начало описания фильтра
    <filter id="myfilter" x="0" y="0" width="200%" height="200%">
      // Взять прозрачность объекта и сместить на 2px вниз и вправо
      <feOffset result="offOut" in="SourceAlpha" dx="10" dy="2" />
      // Затем размыть силой 2
      <feGaussianBlur result="blurOut" in="offOut" stdDeviation="5" />
      //  и совместить с исходным изображением:
      <feBlend in="SourceGraphic" in2="blurOut" mode="normal" />
    </filter>
  </defs>

<path fill="#000" fill-rule="evenodd" filter="url(#myfilter)" clip-rule="evenodd" d="M4220 14700 c-106 -7 -242 -25 -365 -49 -127 -24 -444 -121 -530
-161 -11 -5 -63 -29 -116 -53 -52 -24 -124 -61 -159 -81 l-63 -37 -66 15
c-100 22 -176 26 -317 16 -435 -32 -734 -152 -966 -390 -204 -210 -354 -537
-397 -870 -48 -367 -13 -506 174 -695 148 -148 423 -316 712 -436 101 -42 107
-59 21 -60 -187 -2 -284 12 -458 67 -101 32 -347 143 -421 191 -26 16 -28 16
-70 -15 -67 -50 -185 -169 -246 -250 -67 -90 -320 -482 -338 -525 -41 -100
-68 -324 -86 -722 -16 -347 -13 -381 85 -970 77 -471 82 -487 121 -493 11 -1
26 -15 32 -30 37 -86 106 -249 122 -290 10 -26 35 -85 56 -132 20 -47 43 -102
50 -123 8 -20 21 -52 29 -70 56 -122 176 -424 176 -444 0 -14 -10 -77 -22
-141 -22 -111 -23 -141 -23 -607 l0 -490 42 -205 c62 -299 64 -316 73 -650 9
-331 21 -435 64 -540 52 -127 47 -225 -35 -625 -122 -600 -85 -780 237 -1143
56 -63 114 -138 128 -166 30 -59 31 -78 21 -283 -18 -340 69 -704 211 -879 18
-23 86 -82 151 -131 288 -220 484 -302 838 -353 108 -16 269 -59 450 -120 232
-79 312 -100 404 -106 96 -7 210 10 340 51 142 45 192 48 315 22 l108 -24 116
24 c129 26 164 23 312 -22 116 -35 167 -46 255 -52 106 -7 192 10 442 92 233
77 388 119 498 134 354 51 580 150 870 380 103 82 130 113 179 202 101 184
167 528 150 784 -13 201 -11 225 16 279 14 27 67 97 119 155 159 180 235 298
282 436 22 64 24 85 23 260 l0 190 -58 280 c-53 254 -58 293 -60 415 -1 126 1
140 26 202 45 110 58 223 68 568 9 331 8 325 77 660 l38 185 0 460 c0 504 4
461 -76 913 l-20 113 37 62 c21 34 63 100 94 147 204 306 310 519 310 622 0
36 30 278 70 563 5 39 23 192 40 340 19 165 41 305 56 360 127 469 151 1007
59 1349 -94 350 -468 822 -1080 1361 -93 83 -197 171 -230 197 -45 35 -65 60
-79 95 -26 65 -74 136 -141 210 -168 186 -495 344 -834 403 -61 11 -87 27
-420 248 -196 130 -372 243 -391 250 -159 60 -461 118 -680 132 -159 10 -182
10 -350 0z m730 -361 c108 -13 244 -44 331 -75 131 -47 339 -159 339 -182 0
-4 -75 -7 -168 -8 -251 -1 -812 -59 -1030 -105 -186 -40 -407 -140 -597 -271
-252 -173 -525 -443 -732 -722 -79 -106 -109 -131 -97 -79 135 571 486 1028
964 1257 320 153 683 221 990 185z m-2294 -360 c-268 -312 -397 -579 -437
-903 -35 -288 84 -630 300 -859 46 -49 61 -71 53 -79 -19 -19 -98 29 -166 103
-155 168 -402 595 -442 765 -20 87 -20 229 0 315 61 265 332 553 709 754 45
25 83 40 85 35 2 -4 -44 -64 -102 -131z m3046 -208 c71 -11 165 -30 210 -41
110 -27 278 -83 278 -92 0 -3 -14 -2 -32 3 -60 17 -182 24 -403 24 -203 0
-230 -3 -350 -28 -332 -71 -664 -223 -935 -427 -108 -81 -113 -80 -81 11 80
234 273 416 536 507 77 26 188 50 310 65 73 10 349 -3 467 -22z m678 -495
c522 -72 626 -96 827 -191 269 -127 506 -332 705 -607 63 -88 132 -207 125
-214 -2 -2 -33 31 -69 74 -290 338 -459 436 -1248 721 -295 107 -327 117 -455
136 -279 42 -549 -10 -850 -162 -136 -69 -224 -130 -424 -292 -40 -32 -43 -33
-31 -11 7 14 38 57 69 95 235 294 459 434 766 479 80 12 410 -4 585 -28z
m-3292 -1491 c174 -13 372 -24 852 -50 554 -29 1125 -25 1275 9 167 38 208 45
300 51 257 17 789 -49 1099 -136 158 -44 243 -86 286 -139 38 -48 118 -200
143 -270 8 -25 25 -72 37 -105 74 -202 156 -512 251 -945 118 -539 151 -732
183 -1045 26 -261 63 -778 72 -1015 4 -91 7 -166 8 -167 2 -2 17 41 35 95 36
105 74 186 92 198 32 20 -42 -791 -88 -961 -33 -121 -45 -139 -225 -340 -91
-102 -124 -165 -139 -271 -19 -123 -68 -164 -270 -224 -154 -45 -227 -85 -261
-140 -55 -89 -119 -322 -168 -611 -12 -68 -23 -125 -24 -127 -8 -8 -698 279
-754 314 -34 21 -199 126 -366 231 -272 173 -315 197 -411 229 -123 41 -247
50 -300 22 -17 -8 -66 -34 -110 -57 -44 -22 -90 -41 -102 -41 -13 0 -71 25
-131 56 -105 56 -108 57 -187 56 -61 0 -104 -8 -180 -32 -116 -38 -133 -45
-240 -115 -44 -29 -199 -128 -345 -220 l-265 -168 -310 -124 c-170 -68 -325
-131 -343 -139 -37 -17 -52 -12 -52 19 0 72 -69 397 -116 546 -66 211 -79 222
-374 316 -148 47 -220 113 -220 201 0 82 -61 197 -157 298 -70 73 -148 167
-163 194 -23 46 -51 138 -65 217 -36 207 -69 573 -81 887 -5 113 -11 176 -17
175 -15 -3 -28 79 -23 143 2 30 18 93 34 140 95 265 107 603 41 1115 -17 131
-6 429 21 585 25 140 81 340 133 475 108 280 305 617 418 719 83 74 250 131
454 154 128 15 533 13 753 -3z m1367 -6401 c236 -3 386 -1 437 6 62 9 93 8
168 -5 109 -19 387 -110 605 -198 219 -89 244 -100 248 -112 7 -20 -23 -192
-48 -271 -29 -93 -75 -168 -124 -201 -26 -18 -48 -23 -97 -23 -78 0 -159 28
-344 119 -229 113 -225 113 -525 31 -262 -72 -276 -72 -569 6 -197 53 -258 62
-312 43 -21 -7 -44 -14 -49 -15 -6 -1 -71 -32 -145 -69 -74 -36 -167 -77 -207
-91 -89 -30 -185 -32 -226 -6 -81 54 -141 205 -173 434 l-6 47 58 26 c138 61
440 177 577 220 171 55 276 76 332 69 22 -3 202 -7 400 -10z"/>
</g>
</svg>
